<?xml version="1.0" encoding="utf-8"?>
<!-- Generator: Adobe Illustrator 25.3.0, SVG Export Plug-In . SVG Version: 6.00 Build 0)  -->
<svg version="1.1" id="Layer_1" xmlns="http://www.w3.org/2000/svg" xmlns:xlink="http://www.w3.org/1999/xlink" x="0px" y="0px"
	 viewBox="0 0 595.28 841.89" style="enable-background:new 0 0 595.28 841.89;" xml:space="preserve">
<style type="text/css">
	.st0{fill:#9A5336;}
	.st1{opacity:0.5;fill:#8B3018;}
	.st2{fill:#F2AB88;}
	.st3{fill:#E95F69;}
	.st4{fill:#C1434E;}
	.st5{fill:#CB3449;}
	.st6{opacity:0.65;fill:#CFB6B5;}
	.st7{opacity:0.55;fill:#DCB890;}
	.st8{fill:#DC7A5C;}
	.st9{fill:#FDFAEF;}
	.st10{fill:#331514;}
	.st11{fill:#643838;}
	.st12{fill:#984D41;}
	.st13{fill:url(#SVGID_1_);}
	.st14{fill:url(#SVGID_2_);}
	.st15{fill:#CE7959;}
	.st16{fill:#6B3011;}
	.st17{opacity:0.5;fill:#9A5336;}
	.st18{opacity:0.32;fill:#DAAB88;}
	.st19{fill:#343434;}
	.st20{opacity:0.35;fill:#D49581;}
	.st21{opacity:0.65;fill:#D59C7C;}
</style>
<g>
	<path class="st0" d="M298.92,214.89c51.1-0.44,89.26-7.83,89.26-7.83s-6.58,0.87-13.16-88.21C369.18,39.81,311.93,35,299.08,35
		c-1.69,0-3.39,0-5.08,0c-12.85,0-70.1,4.81-75.94,83.84c-6.58,89.08-13.16,88.21-13.16,88.21s38.16,7.39,89.26,7.83v0.02
		c0.8,0,1.58-0.01,2.38-0.01c0.79,0,1.58,0.01,2.38,0.01L298.92,214.89z"/>
	<path class="st1" d="M298.14,214.89c34.49-0.35,60.26-6.19,60.26-6.19s-4.44-4.83-8.88-75.22c-4.41-69.94-52.37-59.42-52.98-59.28
		c-0.61-0.14-48.57-10.66-52.98,59.28c-4.44,70.39-8.88,75.22-8.88,75.22s25.76,5.84,60.26,6.19l0,0.02c0.54,0,1.07-0.01,1.61-0.01
		c0.54,0,1.07,0.01,1.61,0.01L298.14,214.89z"/>
	<path class="st2" d="M268.61,218.95c4.73,2.77,9.59,5.62,13.51,9.15c1.45,1.33,2.94,2.63,4.43,3.93c7.2-0.59,14.53-1.72,21.31-3.72
		c16.51-4.86,32.49-14.55,44.2-25c4.43-3.95,5.21-10.09,8.15-14.8c-9.71-2.11-17.22-3.27-24.52-5.64
		c-19.37-6.28-18.9-35.64-18.9-35.64h-41.76c0,0,0,30.28-19.37,36.56c-9.26,3-22.02,5.1-34.35,8.07
		C232.89,202.41,253.07,209.85,268.61,218.95z"/>
	<path class="st3" d="M346.4,185.34c-1.78,2.08-34.88,40.52-47.32,40.62c-0.24,0-1.29,0-1.53,0c-12.44-0.1-45.54-38.54-47.32-40.62
		c-17.02,4.46-41.4,7.38-56.09,16.55c2.4,3.83,4.42,7.92,6.18,12.16c6.39,15.35,14.74,29.89,19.18,45.78
		c7.09,25.37,13.46,69.37,15.18,95.14l0.63,0.19c19.82,5.9,41.45,8.49,63.01,8.01c21.56,0.48,43.19-2.11,63.01-8.01l0.63-0.19
		c1.72-25.77,8.09-69.77,15.18-95.14c4.44-15.89,12.79-30.44,19.18-45.78c1.77-4.24,3.78-8.33,6.18-12.16
		C387.8,192.73,363.42,189.81,346.4,185.34z"/>
	<g>
		<g>
			<g>
				<path class="st4" d="M282.16,251.06c0,1.87,1.9,3.38,4.24,3.38c2.34,0,4.24-1.51,4.24-3.38s-1.9-3.38-4.24-3.38
					C284.05,247.69,282.16,249.2,282.16,251.06z"/>
			</g>
			<g>
				<path class="st4" d="M282.16,273.38c0,1.87,1.9,3.38,4.24,3.38c2.34,0,4.24-1.51,4.24-3.38c0-1.87-1.9-3.38-4.24-3.38
					C284.05,270.01,282.16,271.52,282.16,273.38z"/>
			</g>
			<g>
				<path class="st4" d="M282.16,295.71c0,1.87,1.9,3.38,4.24,3.38c2.34,0,4.24-1.51,4.24-3.38c0-1.87-1.9-3.38-4.24-3.38
					C284.05,292.33,282.16,293.84,282.16,295.71z"/>
			</g>
			<g>
				<path class="st4" d="M282.16,318.03c0,1.87,1.9,3.38,4.24,3.38c2.34,0,4.24-1.51,4.24-3.38c0-1.87-1.9-3.38-4.24-3.38
					C284.05,314.65,282.16,316.16,282.16,318.03z"/>
			</g>
		</g>
	</g>
	<path class="st5" d="M298.31,232.03c0,0-4.14,71.56,0.44,118.1C298.75,350.14,300.09,249.17,298.31,232.03z"/>
	<path class="st6" d="M380.05,247.5c-11.95,7.44-18.96,26.3-25.18,37.04c-8.74,15.08-18.25,23.12-38.37,30.2
		c-11.83,4.16-21.69,2.5-30.83-1.2c-16.68,0.46-26.71-4.5-37.73-16.97c-11.33-12.82-19.42-27.96-25.7-42.36
		c-5.46-12.51-12.44-24.87-20.42-36.71c6.15,14.09,13.58,27.64,17.68,42.33c7.09,25.37,13.46,69.37,15.18,95.14l0.63,0.19
		c19.82,5.9,41.45,8.49,63.01,8.01c21.56,0.48,43.19-2.11,63.01-8.01l0.63-0.19c1.72-25.77,8.09-69.77,15.18-95.14
		c1.27-4.54,2.87-8.98,4.64-13.35C381.2,246.82,380.61,247.15,380.05,247.5z"/>
	<path class="st7" d="M275.03,147.43c0,0.24-0.02,0.7-0.05,1.35c0,0.05,0,0.09-0.01,0.14c-0.03,0.66-0.09,1.49-0.18,2.47
		c-0.01,0.06-0.01,0.12-0.02,0.18c-0.1,1-0.23,2.13-0.41,3.37c-0.01,0.06-0.02,0.12-0.03,0.18c-0.19,1.25-0.43,2.6-0.73,4.01
		c-0.02,0.07-0.03,0.14-0.05,0.21c-0.31,1.42-0.68,2.89-1.13,4.38c-0.02,0.07-0.04,0.14-0.07,0.21c-0.46,1.5-1,3.01-1.63,4.5
		c-0.03,0.08-0.07,0.15-0.1,0.23c-0.64,1.48-1.37,2.94-2.2,4.34c-0.05,0.08-0.1,0.16-0.15,0.24c-0.42,0.69-0.86,1.37-1.33,2.03
		c1.32,0.44,15.77,5.03,27.71,5.03c17.43,0,26.27-4.05,29.71-5.74c-7.57-11.16-7.58-27.34-7.58-27.34h-20.88h-20.88
		c0,0,0,0.07,0,0.17C275.03,147.41,275.03,147.41,275.03,147.43z"/>
	<g>
		<path class="st2" d="M234.74,111.54c6.39-6.89,20.88,4.33,20.88,4.33s9,8.37-1.48,18.48c-5.24,5.06-11.29,1.23-15.34-4.78
			C234.76,123.57,230.19,116.46,234.74,111.54z"/>
		<path class="st8" d="M243.94,130.27c1.41,1.13,3.2,2.05,5.32,1.75c0.89-0.13,1.72-1.18,1.48-1.79c-0.61-1.5-6.6-4.16-5.1-8.33
			c1.51-4.22-5.22-8.25-7.31-5.94C236.69,117.77,238.66,126.02,243.94,130.27z"/>
	</g>
	<g>
		<path class="st2" d="M358.31,111.54c-6.39-6.89-20.88,4.33-20.88,4.33s-9,8.37,1.48,18.48c5.24,5.06,11.29,1.23,15.34-4.78
			C358.3,123.57,362.87,116.46,358.31,111.54z"/>
		<path class="st8" d="M349.12,130.27c-1.4,1.13-3.2,2.05-5.32,1.75c-0.89-0.13-1.72-1.18-1.48-1.79c0.61-1.5,6.6-4.16,5.1-8.33
			c-1.51-4.22,5.22-8.25,7.31-5.94C356.37,117.77,354.4,126.02,349.12,130.27z"/>
	</g>
	<path class="st2" d="M348.95,76.96c-1.4-6.25-6.77-11.53-13.56-15.85c-11.37-7.23-25.03-14.7-38.7-14.7
		c-13.66,0-27.33,7.47-38.7,14.7c-6.8,4.32-12.16,9.6-13.56,15.85c0,0-3.33,45.62,12.06,64.45c11.92,14.59,26.93,25.99,40.2,25.99
		s28.28-11.41,40.2-25.99C352.27,122.59,348.95,76.96,348.95,76.96z"/>
	<g>
		<g>
			<path class="st9" d="M260.49,108.61c0,4.63,4.98,8.38,11.12,8.38c6.14,0,11.12-3.75,11.12-8.38c0-4.63-4.98-8.38-11.12-8.38
				C265.47,100.22,260.49,103.98,260.49,108.61z"/>
			<path class="st10" d="M267.54,114.65c2.06,0.32,3.83,0.51,5.87,0.51c3.31,0,6.35-1.17,8.31-3.07c-1.76,2.89-5.62,4.9-10.11,4.9
				c-4.61,0-8.57-2.12-10.26-5.13C263.12,113.11,265.21,114.29,267.54,114.65z"/>
			<g>
				<path class="st11" d="M265.09,109.05c0,2.83,2.92,5.12,6.52,5.12c3.6,0,6.52-2.29,6.52-5.12c0-2.83-2.92-5.12-6.52-5.12
					C268.01,103.92,265.09,106.22,265.09,109.05z"/>
				<path class="st10" d="M267.65,109.05c0,1.72,1.77,3.11,3.96,3.11c2.19,0,3.96-1.39,3.96-3.11s-1.77-3.11-3.96-3.11
					C269.42,105.94,267.65,107.33,267.65,109.05z"/>
			</g>
			<path class="st12" d="M278.92,106.07c-2.54-0.57-5.28-1.03-7.93-0.86c-4.09,0.26-7.23,1.17-10.48,3.02
				c0.27-4.45,2.4-9.35,11.02-9.81c8.32-0.44,10.57,5.1,11.14,9.33C281.62,106.99,280.36,106.4,278.92,106.07z"/>
			<path class="st10" d="M278.92,106.07c-2.54-0.57-5.28-1.03-7.93-0.86c-4.09,0.26-7.23,1.17-10.48,3.02
				c-3.06-0.98-5.78-2.9-5.51-4.92c0,0,4.09,1.1,7.45-0.17c2.04-0.77,4.69-1.8,8.56-2c8.32-0.44,11.09,2.39,11.66,6.62
				C281.62,106.99,280.36,106.4,278.92,106.07z"/>
		</g>
		<path class="st9" d="M275.8,107.82c0,0.56-0.57,1.02-1.28,1.02c-0.71,0-1.28-0.46-1.28-1.02c0-0.56,0.57-1.02,1.28-1.02
			C275.22,106.8,275.8,107.26,275.8,107.82z"/>
	</g>
	<g>
		<g>
			<path class="st9" d="M330.16,108.61c0,4.63-4.98,8.38-11.12,8.38c-6.14,0-11.12-3.75-11.12-8.38c0-4.63,4.98-8.38,11.12-8.38
				C325.17,100.22,330.16,103.98,330.16,108.61z"/>
			<path class="st10" d="M323.11,114.65c-2.06,0.32-3.83,0.51-5.87,0.51c-3.31,0-6.35-1.17-8.31-3.07c1.76,2.89,5.62,4.9,10.11,4.9
				c4.61,0,8.57-2.12,10.26-5.13C327.52,113.11,325.43,114.29,323.11,114.65z"/>
			<g>
				<path class="st11" d="M325.55,109.05c0,2.83-2.92,5.12-6.52,5.12c-3.6,0-6.52-2.29-6.52-5.12c0-2.83,2.92-5.12,6.52-5.12
					C322.63,103.92,325.55,106.22,325.55,109.05z"/>
				<ellipse class="st10" cx="319.03" cy="109.05" rx="3.96" ry="3.11"/>
			</g>
			<path class="st12" d="M311.72,106.07c2.54-0.57,5.28-1.03,7.93-0.86c4.09,0.26,7.23,1.17,10.48,3.02
				c-0.26-4.45-2.4-9.35-11.02-9.81c-8.32-0.44-10.57,5.1-11.14,9.33C309.02,106.99,310.28,106.4,311.72,106.07z"/>
			<path class="st10" d="M311.72,106.07c2.54-0.57,5.28-1.03,7.93-0.86c4.09,0.26,7.23,1.17,10.48,3.02
				c3.06-0.98,5.78-2.9,5.51-4.92c0,0-4.09,1.1-7.45-0.17c-2.04-0.77-4.69-1.8-8.56-2c-8.32-0.44-11.09,2.39-11.66,6.62
				C309.02,106.99,310.28,106.4,311.72,106.07z"/>
		</g>
		<path class="st9" d="M320.99,107.82c0,0.56,0.57,1.02,1.28,1.02c0.71,0,1.28-0.46,1.28-1.02c0-0.56-0.57-1.02-1.28-1.02
			C321.57,106.8,320.99,107.26,320.99,107.82z"/>
	</g>
	
		<radialGradient id="SVGID_1_" cx="239.3086" cy="125.0184" r="7.8639" gradientTransform="matrix(1.4691 0 0 1 -26.4268 0)" gradientUnits="userSpaceOnUse">
		<stop  offset="0" style="stop-color:#F29889"/>
		<stop  offset="0.5137" style="stop-color:#F2A289"/>
		<stop  offset="0.9198" style="stop-color:#F2AB88"/>
	</radialGradient>
	<path class="st13" d="M337.52,125.02c0,4.01-5.54,7.26-12.38,7.26c-6.84,0-12.38-3.25-12.38-7.26c0-4.01,5.54-7.26,12.38-7.26
		C331.97,117.76,337.52,121.01,337.52,125.02z"/>
	
		<radialGradient id="SVGID_2_" cx="113.7632" cy="125.0184" r="7.8639" gradientTransform="matrix(-1.4691 0 0 1 435.1105 0)" gradientUnits="userSpaceOnUse">
		<stop  offset="0" style="stop-color:#F29889"/>
		<stop  offset="0.5137" style="stop-color:#F2A289"/>
		<stop  offset="0.9198" style="stop-color:#F2AB88"/>
	</radialGradient>
	<ellipse class="st14" cx="267.98" cy="125.02" rx="12.38" ry="7.26"/>
	<g>
		<path class="st15" d="M294.12,130.71c-0.32,0-0.62-0.01-0.9-0.04c-2.02-0.19-5.67-0.76-7.3-2.53c-0.74-0.8-0.99-1.74-0.75-2.78
			c0.22-0.92,1.35-2.14,2.79-3.69c1.48-1.6,3.16-3.41,3.88-4.98c2.06-4.47,2.37-9.87,2.37-9.93c0.03-0.48,0.58-0.87,1.14-0.84
			c0.6,0.02,1.07,0.43,1.05,0.91c-0.01,0.23-0.33,5.74-2.51,10.45c-0.83,1.8-2.61,3.72-4.18,5.41c-1.06,1.15-2.27,2.45-2.4,2.98
			c-0.13,0.56-0.02,1.01,0.36,1.42c0.82,0.89,2.98,1.57,5.79,1.83c1.56,0.14,3.66-0.26,4.24-0.82c0.11-0.11,0.13-0.17,0.07-0.3
			c-0.19-0.46,0.13-0.95,0.71-1.1c0.58-0.14,1.19,0.1,1.38,0.56c0.28,0.69,0.11,1.38-0.47,1.94
			C298.3,130.3,295.91,130.71,294.12,130.71z"/>
	</g>
	<path class="st16" d="M282.89,91.52c1.95,0.07,3.76-0.14,4.7-1.49c0.84-1.21,1.96-3.13,1.54-3.68c-1.27-1.65-22.09-1.37-22.88-1.12
		c-0.79,0.25-10.88,5.27-10.56,6.4c0.32,1.13,11.37-1.88,12.46-1.76C268.97,89.98,277.71,91.34,282.89,91.52z"/>
	<path class="st16" d="M310.48,91.52c-1.95,0.07-3.76-0.14-4.7-1.49c-0.84-1.21-1.96-3.13-1.54-3.68
		c1.27-1.65,22.09-1.37,22.88-1.12c0.79,0.25,10.88,5.27,10.56,6.4c-0.32,1.13-11.37-1.88-12.46-1.76
		C324.39,89.98,315.66,91.34,310.48,91.52z"/>
	<path class="st3" d="M306.01,138.14c-3.19-0.96-8.37-1.81-10.68,2.04c-2.32-3.85-7.49-3-10.68-2.04
		c-3.19,0.96-10.45,1.42-10.45,1.42c8.94,6.5,21.13,5.42,21.13,5.42s12.19,1.07,21.13-5.42C316.45,139.56,309.2,139.1,306.01,138.14
		z"/>
	<path class="st3" d="M295.32,143.66c0,0-12.17-0.66-17.67-2.01c0,0,8.27,8.25,17.67,8.25c9.39,0,17.67-8.25,17.67-8.25
		C307.49,143,295.32,143.66,295.32,143.66z"/>
	<path class="st0" d="M296.92,46.12c0,0,0,0.02,0,0.05C296.92,46.14,296.92,46.12,296.92,46.12c-82.32,0-63.56,45.02-57.12,59.82
		c1.97,4.52,5.26,9.29,7.86,13.1c2.97,4.34,2.01-0.72,2.01-0.72c-4.02-24.45,4.57-41.98,4.57-41.98
		c8.78-17.68,42.68-20.08,42.68-20.08s21.17,15.71,42.68,20.08c0,0,8.59,17.53,4.57,41.98c0,0-0.96,5.06,2.01,0.72
		c2.6-3.81,5.89-8.58,7.86-13.1C360.48,91.14,379.24,46.12,296.92,46.12z"/>
	<path class="st17" d="M358.55,69.92c-2-5.1-5.72-9.9-12.02-13.84C351.33,60.19,355.38,64.89,358.55,69.92z"/>
	<path class="st0" d="M347.58,85.7c0,0-0.61-32.66-32.98-36c-4.99-0.51-31.18-0.1-36.51,0.31c-44.07,3.41-33.97,42.46-33.97,42.46
		c17.03-5.87,31.99-18.9,36.24-31.23C284.22,70.21,313.13,85.53,347.58,85.7z"/>
	<path class="st17" d="M327.51,68c-3.92-1.91-7.54-4.16-10.77-6.72c4.39,5.24,6.58,12.22,15.35,13.97
		c-15.35,0-28.51-8.73-35.09-19.2c0,5.24,2.19,8.73,6.58,12.22c-8.86-2.82-16.28-7.93-23.43-13.46
		c-1.96,6.36-6.15,11.92-12.53,17.14c-2.65,2.17-5.43,4.07-8.36,5.72c-5.2,2.92-8.66,7.47-9.54,12.48
		c-0.01,0.03-0.01,0.06-0.02,0.09c14.63-6.55,26.87-18.04,30.65-29c3.65,8.5,29.74,22.67,61.72,24.31c-0.14-0.76-0.31-1.51-0.5-2.25
		C339.91,76.83,334.58,71.44,327.51,68z"/>
	<path class="st2" d="M219.88,570.53c0,0-2.23,12.84-8.45,22.77c-4.94,7.88-11.38,17.01-13.16,25.22
		c-4.02,18.55-2.41,103.6-4.82,109.99c-2.41,6.4-9.64,39.65-7.23,47.96c2.41,8.31,34.16,14.5,34.96,8.11
		c0.8-6.39-7.13-54.16-6.85-59.27c1.75-31.2,36.15-86.33,35.35-101.68c-0.8-15.35,24.9-48.08,24.9-48.08
		S239.16,561.47,219.88,570.53z"/>
	<path class="st18" d="M231.27,602.54c9.12,1.92,17.4,0.98,25.72-0.43c7.35-13.49,17.6-26.55,17.6-26.55s-35.42-14.09-54.7-5.03
		c0,0-2.23,12.84-8.45,22.77c-0.25,0.4-0.53,0.83-0.79,1.24C217.19,597.91,223.88,600.98,231.27,602.54z"/>
	<path class="st2" d="M314.79,575.56c0,0,10.44,29.53,8.84,35.29c-1.61,5.76-7.7,21.74,0.17,55c7.87,33.25,10.28,49.88,7.87,60.75
		c-2.41,10.87-9.64,59.81,6.43,63.48c10.82,2.47,17.47-1.56,17.75-20.92c0.12-8.21,0.65-20.38-2.81-33.95
		c-1.2-4.71-1.35-9.53-0.7-14.31c1.21-8.87,3.55-23.69,7.33-39.19c6.07-24.88,15.79-51.58,12.16-71.49
		c-7.23-39.65-6.43-46.04-6.43-46.04S341.27,554.15,314.79,575.56z"/>
	<path class="st18" d="M369.36,596.17c-4.56-27.17-3.96-32.01-3.96-32.01s-24.13-10.01-50.61,11.4c0,0,5.14,14.54,7.65,25.2
		C338.9,602.47,356.53,602.88,369.36,596.17z"/>
	<path class="st19" d="M190.43,739.87c0,0,1.12,35.62,12.66,36.45c21.13,1.52,12.1-40.1,12.1-40.1s10,44.99,10.19,54.8
		c0.09,4.44-10.76,15.04-17.43,15.04c-6.67,0-19.09-10.07-22.22-18.71S187.41,751.22,190.43,739.87z"/>
	<path class="st19" d="M353.95,739.87c0,0-1.07,36.24-12.66,36.45c-18.06,0.34-11.32-40.1-11.32-40.1s-10.74,44.99-10.98,54.8
		c-0.08,3.4,10.76,15.04,17.43,15.04s19.09-10.07,22.22-18.71S356.97,751.22,353.95,739.87z"/>
	<path class="st19" d="M234,352c0,0-57.78,88.73-43.99,177.32c15.2,97.61-11.32,139.88-23.01,161.3c0,0,76.25,60.06,216.62,16.59
		c0,0-12.13-49.26-6.07-99.49c6.07-50.23,25.26-153.92-17.19-257.59C360.36,350.14,282,374,234,352z"/>
	<path class="st3" d="M402.49,201.89c0,0-8.77,5.44-21.63,29.1c-5.98,11.01-12.46,28.1-11.27,40.06c0.92,9.23,3.75,33.54,2.17,36.79
		c-2.56,5.27-112.84,8.46-112.84,8.46l5.68,38.13c0,0,128.03,2.52,148.12-10.37C424.34,336.6,419.22,214.91,402.49,201.89z"/>
	<path class="st6" d="M312.91,340.94c11.44-2.9,22.51-6.84,33.83-10c0.09-1.49,0.45-2.77,1.34-3.67c1.12-1.13,15.38-2.58,17.55-4.82
		c2.64-2.73,2.97-4,3.07-5.14c0.28-3.15,0.22-3.25-0.34-5.56c-0.15,0.97-0.34,1.78-0.61,2.33c-2.23,4.58-77.02,7.66-107.85,8.73
		l4.11,27.65C280.33,347.47,296.81,345.02,312.91,340.94z"/>
	<path class="st2" d="M353.8,321.92c5.81-1.45,12.6-2.96,15.05-6.99c1.5-2.46-0.19-11.78-0.19-11.78
		c-1.55-0.59-8.72-2.27-10.11-2.46c-7.56-1.02-26.92,9.99-26.92,9.99c-0.68,2.53,0.38,7.38,2.33,12.28c0.42,1,9.3,0.3,10.52,0.27
		C347.38,323.14,350.63,322.71,353.8,321.92z"/>
	<path class="st20" d="M368.67,303.15c-0.56-0.21-1.83-0.56-3.3-0.93c0.95,7.63,1.02,14.92-11.46,16.94
		c-4.55,0.74-16.36,1.02-20.8,1.43c0.27,0.78,0.55,1.57,0.87,2.37c0.42,1,9.3,0.3,10.52,0.27c2.89-0.08,6.14-0.51,9.31-1.31
		c5.81-1.45,12.6-2.96,15.05-6.99C370.35,312.46,368.67,303.15,368.67,303.15z"/>
	<path class="st3" d="M194.13,201.89c0,0-7.62,6.9-17.59,50.19c-6.26,27.2-14.24,74.95-6.07,88.7
		c17.01,28.61,167.49-13.93,167.49-13.93l-4.86-20.05c0,0-122.62,10.24-122.62,4.75c0-2.52,4.11-12.63,5.62-18.03
		c2.53-9.03,7.47-19.92,5.08-28.98C216.09,245.25,200.77,201.89,194.13,201.89z"/>
	<path class="st6" d="M199.52,278.07c6.55-5.92,13.49,1.26,15.02,2.47c-0.17,4.63-0.86,9.25-2.13,13.8
		c-1.44,5.15-2.13,13.25-2.29,16.95C208.19,310.12,183.7,292.37,199.52,278.07z"/>
	<g>
		<path class="st2" d="M202.36,291.95c-3.24-0.53-4.78,1.18-3.41,3.76c0.77,1.44,8.21,8.25,16.2,17.27
			c7.47,1.21,16.54,0.55,24.92-0.09c-2.85-10.75-22.57-30.48-27.84-32.67c-5.09-2.12-6.36,1.03-6.36,1.03
			c-7.11-1.62-5.16,3.3-5.16,3.3C195.34,286.38,202.36,291.95,202.36,291.95z"/>
		<path class="st21" d="M202.19,291.93c0,0,11.89,10.44,13.29,12.59c0.64,0.98,1.1,0.53-0.32-1.21
			C213.49,301.26,209.35,297.59,202.19,291.93z"/>
		<path class="st21" d="M200.77,284.55c0,0,13.82,9.74,18.34,16.01c0.74,1.02,1.38,0.71-0.46-1.56
			C215.98,295.67,209.52,289.94,200.77,284.55z"/>
		<path class="st21" d="M205.81,281.18c0,0,13.45,10.69,17.98,16.95c0.74,1.02,1.38,0.71-0.46-1.56
			C220.65,293.26,217.04,289.58,205.81,281.18z"/>
		<path class="st20" d="M238.52,309.04c-2.25,0.67-4.69,0.67-7.17,1.02c-12.05,1.7-23.35-5.55-24.41-5.89
			c2.47,2.54,5.3,5.53,8.2,8.81c7.47,1.21,16.54,0.55,24.92-0.09C239.75,311.71,239.2,310.4,238.52,309.04z"/>
	</g>
</g>
</svg>
